<svg height="457pt" viewBox="-62 0 457 457.14286" width="457pt" xmlns="http://www.w3.org/2000/svg">
  <path fill="#c5c0c0" d="m292.472656 164.71875h-24.058594v-62.589844c0-56.3125-45.816406-102.128906-102.128906-102.128906s-102.128906 45.816406-102.128906 102.128906v62.589844h-24.058594c-22.070312 0-40.0273435 17.957031-40.0273435 40.027344v212.371094c0 22.070312 17.9570315 40.027343 40.0273435 40.027343h252.375c22.070313 0 40.027344-17.957031 40.027344-40.027343v-212.371094c0-22.070313-17.957031-40.027344-40.027344-40.027344zm-210.03125-62.589844c0-46.230468 37.613282-83.84375 83.84375-83.84375 46.234375 0 83.84375 37.613282 83.84375 83.84375v62.589844h-167.6875zm231.773438 314.988282c0 11.984374-9.753906 21.738281-21.742188 21.738281h-252.375c-11.984375 0-21.742187-9.753907-21.742187-21.738281v-212.371094c0-11.988282 9.757812-21.742188 21.742187-21.742188h252.375c11.988282 0 21.742188 9.753906 21.742188 21.742188zm0 0"/>
  <path fill="#c5c0c0" d="m166.285156 265.613281c-17.640625 0-32 14.355469-32 32 0 14.441407 9.6875 26.542969 22.859375 30.507813v21.726562c0 5.050782 4.09375 9.144532 9.140625 9.144532 5.050782 0 9.144532-4.09375 9.144532-9.144532v-21.726562c13.171874-3.964844 22.855468-16.066406 22.855468-30.507813 0-17.644531-14.355468-32-32-32zm0 45.710938c-7.5625 0-13.714844-6.148438-13.714844-13.710938s6.152344-13.714843 13.714844-13.714843 13.714844 6.152343 13.714844 13.714843-6.152344 13.710938-13.714844 13.710938zm0 0"/></svg>
