<svg class="lds-spinner" width="200px"  height="200px"  xmlns="http://www.w3.org/2000/svg" xmlns:xlink="http://www.w3.org/1999/xlink" viewBox="0 0 100 100" preserveAspectRatio="xMidYMid" style="background: none;"><g transform="rotate(0 50 50)">
  <rect x="48" y="29" rx="5.28" ry="3.19" width="4" height="8" fill="#ffffff">
    <animate attributeName="opacity" values="1;0" keyTimes="0;1" dur="1.4s" begin="-1.2727272727272727s" repeatCount="indefinite"></animate>
  </rect>
</g><g transform="rotate(32.72727272727273 50 50)">
  <rect x="48" y="29" rx="5.28" ry="3.19" width="4" height="8" fill="#ffffff">
    <animate attributeName="opacity" values="1;0" keyTimes="0;1" dur="1.4s" begin="-1.1454545454545455s" repeatCount="indefinite"></animate>
  </rect>
</g><g transform="rotate(65.45454545454545 50 50)">
  <rect x="48" y="29" rx="5.28" ry="3.19" width="4" height="8" fill="#ffffff">
    <animate attributeName="opacity" values="1;0" keyTimes="0;1" dur="1.4s" begin="-1.018181818181818s" repeatCount="indefinite"></animate>
  </rect>
</g><g transform="rotate(98.18181818181819 50 50)">
  <rect x="48" y="29" rx="5.28" ry="3.19" width="4" height="8" fill="#ffffff">
    <animate attributeName="opacity" values="1;0" keyTimes="0;1" dur="1.4s" begin="-0.8909090909090908s" repeatCount="indefinite"></animate>
  </rect>
</g><g transform="rotate(130.9090909090909 50 50)">
  <rect x="48" y="29" rx="5.28" ry="3.19" width="4" height="8" fill="#ffffff">
    <animate attributeName="opacity" values="1;0" keyTimes="0;1" dur="1.4s" begin="-0.7636363636363636s" repeatCount="indefinite"></animate>
  </rect>
</g><g transform="rotate(163.63636363636363 50 50)">
  <rect x="48" y="29" rx="5.28" ry="3.19" width="4" height="8" fill="#ffffff">
    <animate attributeName="opacity" values="1;0" keyTimes="0;1" dur="1.4s" begin="-0.6363636363636364s" repeatCount="indefinite"></animate>
  </rect>
</g><g transform="rotate(196.36363636363637 50 50)">
  <rect x="48" y="29" rx="5.28" ry="3.19" width="4" height="8" fill="#ffffff">
    <animate attributeName="opacity" values="1;0" keyTimes="0;1" dur="1.4s" begin="-0.509090909090909s" repeatCount="indefinite"></animate>
  </rect>
</g><g transform="rotate(229.0909090909091 50 50)">
  <rect x="48" y="29" rx="5.28" ry="3.19" width="4" height="8" fill="#ffffff">
    <animate attributeName="opacity" values="1;0" keyTimes="0;1" dur="1.4s" begin="-0.3818181818181818s" repeatCount="indefinite"></animate>
  </rect>
</g><g transform="rotate(261.8181818181818 50 50)">
  <rect x="48" y="29" rx="5.28" ry="3.19" width="4" height="8" fill="#ffffff">
    <animate attributeName="opacity" values="1;0" keyTimes="0;1" dur="1.4s" begin="-0.2545454545454545s" repeatCount="indefinite"></animate>
  </rect>
</g><g transform="rotate(294.54545454545456 50 50)">
  <rect x="48" y="29" rx="5.28" ry="3.19" width="4" height="8" fill="#ffffff">
    <animate attributeName="opacity" values="1;0" keyTimes="0;1" dur="1.4s" begin="-0.12727272727272726s" repeatCount="indefinite"></animate>
  </rect>
</g><g transform="rotate(327.27272727272725 50 50)">
  <rect x="48" y="29" rx="5.28" ry="3.19" width="4" height="8" fill="#ffffff">
    <animate attributeName="opacity" values="1;0" keyTimes="0;1" dur="1.4s" begin="0s" repeatCount="indefinite"></animate>
  </rect>
</g></svg>